<svg xmlns="http://www.w3.org/2000/svg" viewBox="0 0 787.07 112"><defs><style>.cls-1{fill:#b52626;}.cls-2{fill:#fff;}</style></defs><g id="Layer_2" data-name="Layer 2"><g id="Layout"><g id="Artboard_2" data-name="Artboard 2"><g id="logo_color" data-name="logo color"><path class="cls-1" d="M374.66,92.37l12.07-72.73h31.54q8.31,0,13.62,2.24a14.54,14.54,0,0,1,7.53,6.32,14.65,14.65,0,0,1,1.29,9.62,17.68,17.68,0,0,1-3,7.26,20.78,20.78,0,0,1-5.85,5.54A22.53,22.53,0,0,1,424,53.73l-.14.71A16,16,0,0,1,432,56.77a12.84,12.84,0,0,1,5.11,6,15.93,15.93,0,0,1,.78,9A21.92,21.92,0,0,1,433,82.39,26.49,26.49,0,0,1,423,89.7a35.17,35.17,0,0,1-14.07,2.67ZM397.1,76.6h9.24a13.82,13.82,0,0,0,7.72-1.88,7.65,7.65,0,0,0,3.36-5.51,7.17,7.17,0,0,0-.43-4.33,5.68,5.68,0,0,0-2.88-2.7,12.32,12.32,0,0,0-5.07-.92h-9.52ZM401.65,49h8.1a13.07,13.07,0,0,0,4.68-.81A8.9,8.9,0,0,0,418,45.85a7.39,7.39,0,0,0,1.74-3.77c.35-2.27-.18-4-1.62-5.18a8.73,8.73,0,0,0-5.77-1.78h-8.38Z"/><path class="cls-1" d="M499.07,19.63h-27L436,92.36h21.31l6.53-13.92h24l1.88,13.92H511Zm-28.3,44,11.26-24h.56l3.24,24Z"/><path class="cls-1" d="M515,92.37,527,19.64h19.74L542,49h1l26.7-29.4h23L562.83,52l18.33,40.34H557.58L545.93,65.09l-8.1,8.67-3.12,18.61Z"/><path class="cls-1" d="M583.41,92.37l12.08-72.73H647.9l-2.7,15.91H612.53l-2,12.5h30L637.82,64h-30l-2,12.5h32.52l-2.69,15.91Z"/><path class="cls-1" d="M703.33,57.51A27.43,27.43,0,0,0,709,44.35q1.27-7.74-1.17-13.28a17.41,17.41,0,0,0-8-8.49,29,29,0,0,0-13.67-2.95H654.7L642.62,92.36h19.75l4-24h6.8l8.79,24h21.45L693.15,65.24A27.27,27.27,0,0,0,703.33,57.51ZM671.89,35.4h7a15.32,15.32,0,0,1,5.71.94,6.16,6.16,0,0,1,3.31,2.91,8.39,8.39,0,0,1,.49,5.1,10,10,0,0,1-2.13,5A9.42,9.42,0,0,1,682,52.15a19.45,19.45,0,0,1-6.11.87H669Z"/><path class="cls-1" d="M714.06,19.64h22l9.23,29.54H746l19-29.54h22L752.13,69.5l-3.84,22.87h-19.6l3.84-22.87Z"/><path class="cls-1" d="M328.28,112H6.54a6.54,6.54,0,0,1-6.45-7.63L16.88,5.45A6.53,6.53,0,0,1,23.32,0H342.5a8.7,8.7,0,0,1,8.58,10.15l-16.36,96.4A6.53,6.53,0,0,1,328.28,112Z"/><path class="cls-2" d="M27.19,92.36,39.26,19.64H90.4L87.7,35.55H56.31l-2,12.5H82.59L79.89,64H51.62L46.93,92.36Z"/><path class="cls-2" d="M164.85,57.28q-2,11.86-7.89,19.89a38.42,38.42,0,0,1-14.31,12.1,40.59,40.59,0,0,1-18,4.09,34.33,34.33,0,0,1-17.76-4.44,25.75,25.75,0,0,1-11-13Q92.47,67.37,94.53,55q1.92-11.86,7.82-20A38.65,38.65,0,0,1,116.73,22.8a40.75,40.75,0,0,1,18.15-4.16,33.77,33.77,0,0,1,17.66,4.48,25.8,25.8,0,0,1,10.94,13.1Q166.9,44.85,164.85,57.28ZM145,55a30.45,30.45,0,0,0,.14-10.53A10.58,10.58,0,0,0,141.52,38a11.51,11.51,0,0,0-7.35-2.18,17,17,0,0,0-9.31,2.56,19.74,19.74,0,0,0-6.71,7.35,34.66,34.66,0,0,0-3.73,11.54,27,27,0,0,0-.19,10.51A10.28,10.28,0,0,0,118,74.08a12.1,12.1,0,0,0,7.37,2.09,17.11,17.11,0,0,0,9.18-2.48,19.53,19.53,0,0,0,6.64-7.21A35.64,35.64,0,0,0,145,55Z"/><path class="cls-2" d="M247.39,57.28q-2,11.86-7.88,19.89a38.42,38.42,0,0,1-14.31,12.1,40.64,40.64,0,0,1-18,4.09,34.29,34.29,0,0,1-17.75-4.44,25.77,25.77,0,0,1-11-13Q175,67.37,177.08,55q1.92-11.86,7.81-20A38.65,38.65,0,0,1,199.27,22.8a40.75,40.75,0,0,1,18.15-4.16,33.83,33.83,0,0,1,17.67,4.48A25.83,25.83,0,0,1,246,36.22Q249.46,44.85,247.39,57.28ZM227.51,55a30.45,30.45,0,0,0,.14-10.53A10.59,10.59,0,0,0,224.06,38a11.47,11.47,0,0,0-7.35-2.18,17,17,0,0,0-9.3,2.56,19.84,19.84,0,0,0-6.72,7.35A34.89,34.89,0,0,0,197,57.28a27,27,0,0,0-.2,10.51,10.33,10.33,0,0,0,3.76,6.29,12.12,12.12,0,0,0,7.37,2.09,17.06,17.06,0,0,0,9.18-2.48,19.37,19.37,0,0,0,6.64-7.21A35.4,35.4,0,0,0,227.51,55Z"/><path class="cls-2" d="M282.07,92.36H253.66l12.07-72.72H293q11.22,0,18.75,4.51A24.69,24.69,0,0,1,322.44,37q3.17,8.37,1.25,20a45.22,45.22,0,0,1-7.48,19.07,37,37,0,0,1-14.35,12.11A45,45,0,0,1,282.07,92.36Zm-5.9-16.76h7.17A23.34,23.34,0,0,0,293,73.7a16.32,16.32,0,0,0,7.1-6.39c1.9-3,3.28-7.1,4.14-12.3q1.2-7.4-.08-11.42A8.62,8.62,0,0,0,299.29,38,23.06,23.06,0,0,0,290,36.4h-7.31Z"/></g></g></g></g></svg>